<svg width="33" height="33" viewBox="0 0 33 33" fill="none" xmlns="http://www.w3.org/2000/svg">
<circle cx="16.5" cy="16.5" r="16.5" fill="#363636"/>
<path d="M16 22.5686H23" stroke="white" stroke-linecap="round" stroke-linejoin="round"/>
<path d="M19.5 9.49241C19.8094 9.17713 20.2291 9 20.6667 9C20.8833 9 21.0979 9.04349 21.2981 9.12797C21.4982 9.21246 21.6801 9.3363 21.8333 9.49241C21.9865 9.64852 22.1081 9.83386 22.191 10.0378C22.2739 10.2418 22.3166 10.4604 22.3166 10.6812C22.3166 10.902 22.2739 11.1206 22.191 11.3246C22.1081 11.5285 21.9865 11.7139 21.8333 11.87L12.1111 21.7765L9 22.569L9.77778 19.3989L19.5 9.49241Z" stroke="white" stroke-linecap="round" stroke-linejoin="round"/>
</svg>