<svg width="26" height="26" viewBox="0 0 26 26" fill="none" xmlns="http://www.w3.org/2000/svg">
<path d="M24.5 7.75V1H17.75" stroke="#010913" stroke-width="2" stroke-linecap="round" stroke-linejoin="round"/>
<path d="M16.623 8.875L24.498 1" stroke="#010913" stroke-width="2" stroke-linecap="round" stroke-linejoin="round"/>
<path d="M23.3741 18.91V22.285C23.3754 22.5983 23.3112 22.9084 23.1857 23.1955C23.0602 23.4826 22.8761 23.7403 22.6452 23.9521C22.4143 24.1639 22.1418 24.3252 21.845 24.4255C21.5482 24.5259 21.2337 24.5632 20.9216 24.535C17.4598 24.1588 14.1345 22.9759 11.2129 21.0812C8.49469 19.354 6.19013 17.0494 4.46288 14.3312C2.56161 11.3963 1.3784 8.05486 1.00913 4.57749C0.981018 4.26639 1.01799 3.95284 1.11769 3.65681C1.2174 3.36079 1.37765 3.08876 1.58824 2.85806C1.79884 2.62736 2.05516 2.44304 2.3409 2.31682C2.62663 2.19061 2.93551 2.12528 3.24788 2.12499H6.62288C7.16885 2.11961 7.69815 2.31295 8.11211 2.66896C8.52608 3.02497 8.79647 3.51936 8.87288 4.05999C9.01533 5.14006 9.27951 6.20055 9.66038 7.22124C9.81174 7.6239 9.8445 8.06152 9.75478 8.48223C9.66505 8.90294 9.4566 9.28911 9.15413 9.59499L7.72538 11.0237C9.32688 13.8402 11.6589 16.1722 14.4754 17.7737L15.9041 16.345C16.21 16.0425 16.5962 15.8341 17.0169 15.7443C17.4376 15.6546 17.8752 15.6874 18.2779 15.8387C19.2986 16.2196 20.3591 16.4838 21.4391 16.6262C21.9856 16.7033 22.4847 16.9786 22.8415 17.3997C23.1983 17.8207 23.3878 18.3583 23.3741 18.91Z" stroke="#010913" stroke-width="2" stroke-linecap="round" stroke-linejoin="round"/>
</svg>
