<svg width="194" height="152" viewBox="0 0 194 152" fill="none" xmlns="http://www.w3.org/2000/svg">
<rect width="194" height="152" rx="9" fill="#EDEDED"/>
<path d="M112.778 80.1111C112.778 80.8773 112.473 81.6121 111.932 82.1539C111.39 82.6956 110.655 83 109.889 83H83.8889C83.1227 83 82.3879 82.6956 81.8461 82.1539C81.3044 81.6121 81 80.8773 81 80.1111V64.2222C81 63.456 81.3044 62.7212 81.8461 62.1795C82.3879 61.6377 83.1227 61.3333 83.8889 61.3333H89.6667L92.5556 57H101.222L104.111 61.3333H109.889C110.655 61.3333 111.39 61.6377 111.932 62.1795C112.473 62.7212 112.778 63.456 112.778 64.2222V80.1111Z" stroke="#B8B8B8" stroke-width="2" stroke-linecap="round" stroke-linejoin="round"/>
<path d="M96.8889 77.2222C100.08 77.2222 102.667 74.6354 102.667 71.4444C102.667 68.2535 100.08 65.6667 96.8889 65.6667C93.6979 65.6667 91.1111 68.2535 91.1111 71.4444C91.1111 74.6354 93.6979 77.2222 96.8889 77.2222Z" stroke="#B8B8B8" stroke-width="2" stroke-linecap="round" stroke-linejoin="round"/>
</svg>