<svg width="32" height="33" viewBox="0 0 32 33" fill="none" xmlns="http://www.w3.org/2000/svg">
<ellipse cx="16" cy="16.5" rx="16" ry="16.5" fill="#DF0251"/>
<path d="M10.125 11.25H11.5417H22.875" stroke="white" stroke-linecap="round" stroke-linejoin="round"/>
<path d="M21.4596 11.2498V21.1665C21.4596 21.5422 21.3104 21.9026 21.0447 22.1682C20.779 22.4339 20.4187 22.5832 20.043 22.5832H12.9596C12.5839 22.5832 12.2236 22.4339 11.9579 22.1682C11.6922 21.9026 11.543 21.5422 11.543 21.1665V11.2498M13.668 11.2498V9.83317C13.668 9.45745 13.8172 9.09711 14.0829 8.83144C14.3486 8.56576 14.7089 8.4165 15.0846 8.4165H17.918C18.2937 8.4165 18.654 8.56576 18.9197 8.83144C19.1854 9.09711 19.3346 9.45745 19.3346 9.83317V11.2498" stroke="white" stroke-linecap="round" stroke-linejoin="round"/>
<path d="M15.082 14.7915V19.0415" stroke="white" stroke-linecap="round" stroke-linejoin="round"/>
<path d="M17.918 14.7915V19.0415" stroke="white" stroke-linecap="round" stroke-linejoin="round"/>
</svg>