<svg width="15" height="16" viewBox="0 0 15 16" fill="none" xmlns="http://www.w3.org/2000/svg">
<path d="M0 15.414C0.319896 14.2162 0.613499 13.0741 0.935273 11.9403C1.02479 11.6242 1.01165 11.3734 0.863907 11.0682C-1.46363 6.26817 1.52373 0.669601 6.73096 0.0502391C10.7995 -0.433477 14.5368 2.63262 14.9581 6.79795C15.3738 10.9127 12.6537 14.5528 8.65535 15.1958C7.09844 15.446 5.60475 15.1849 4.18306 14.4798C4.04158 14.4094 3.84001 14.3928 3.686 14.4325C2.47528 14.7434 1.26894 15.0736 0 15.414ZM1.80481 13.5732C1.90122 13.5572 1.96132 13.5527 2.01829 13.5373C2.64306 13.3704 3.26469 13.1906 3.89322 13.0415C4.03658 13.0076 4.22876 13.0293 4.35522 13.1029C5.51273 13.776 6.74536 14.0716 8.07691 13.959C11.1926 13.6947 13.671 11.019 13.7505 7.82105C13.8544 3.63332 10.0658 0.503243 6.07114 1.47707C1.99513 2.4701 0.0319271 7.3303 2.24929 10.9601C2.38639 11.184 2.40705 11.3715 2.33693 11.6127C2.15226 12.2513 1.98699 12.8962 1.80481 13.5732Z" fill="#141D2C"/>
<path d="M3.70703 5.94144C3.73082 5.3016 3.9612 4.76542 4.4113 4.34249C4.53901 4.2222 4.7337 4.13454 4.90711 4.11407C5.44048 4.05072 5.5469 4.13326 5.75349 4.64833C5.89622 5.0028 6.01955 5.36687 6.18857 5.7079C6.35322 6.04061 6.25618 6.29399 6.0496 6.55056C5.59135 7.11874 5.59573 7.11938 6.02143 7.72402C6.58422 8.52254 7.31228 9.10351 8.19747 9.48805C8.42472 9.58659 8.59124 9.56483 8.74086 9.35688C8.88234 9.15982 9.05261 8.98322 9.18846 8.78295C9.32431 8.58268 9.48019 8.52446 9.69491 8.62939C10.1832 8.86869 10.674 9.10287 11.1579 9.35113C11.2287 9.3876 11.3082 9.48869 11.3132 9.56483C11.3407 9.96793 11.2831 10.3653 10.997 10.666C10.5181 11.1695 9.9328 11.4088 9.24042 11.2822C7.26032 10.9194 5.75975 9.81053 4.64982 8.13096C4.34369 7.66772 4.10017 7.15777 3.86354 6.6523C3.76463 6.43795 3.75649 6.17946 3.70703 5.94144Z" fill="#141D2C"/>
</svg>